<?xml version="1.0" encoding="utf-8"?>
<!DOCTYPE svg PUBLIC "-//W3C//DTD SVG 1.1//EN" "http://www.w3.org/Graphics/SVG/1.1/DTD/svg11.dtd">
<svg xmlns="http://www.w3.org/2000/svg" version="1.1" x="0" y="0" width="80" height="100" preserveAspectRatio="xMinYMin" viewBox="0 0 80 100" enable-background="new 0 0 80 100" xml:space="preserve"><path fill="#FFF" d="M62.7 100c0.6 0 1.4-0.5 1.6-1.1l5.9-15.2c0.2-0.6-0.1-1.1-0.7-1.1H6.5c-0.6 0-1 0.5-0.7 1.1l5.9 15.2c0.2 0.6 0.9 1.1 1.6 1.1H62.7zM2.4 79.1c0 0.6 0.5 1.2 1.2 1.2h68.9c0.6 0 1.2-0.5 1.2-1.2v-2.3c0-0.6-0.5-1.2-1.2-1.2H3.5c-0.6 0-1.2 0.5-1.2 1.2C2.4 76.8 2.4 79.1 2.4 79.1z"/><path fill="#FFF" d="M60.8 42.6c-10.5 0-19.1 4.3-19.1 9.6 0 0.5 0.1 1 0.3 1.5 -0.2 0.1-3.3-3.3-6.1-4.4 -5-2.2-5.5-6.4-2.6-10.9 1-1.6 2.5-2.8 4.1-4.1 1.1-0.7 2.2-1.3 3.2-2 1.3-0.9 2.5-2.1 3.7-3.1 1.9 1.1 5.1 1.8 8.7 1.8 5.8 0 10.5-1.8 10.5-4.1s-4.7-4.1-10.5-4.1c-1.6 0-3 0.1-4.4 0.4 2.1-5.9 0.5-9.6-2.4-13.5 3.9-0.5 6.3-2.4 6.3-4.8 0-2.7-3.9-5-8.6-5s-8.6 2.2-8.6 5c0 2.6 3.5 4.7 7.9 4.9 0.2 0.6 0.3 1.3 0.4 1.9 0 0.4 0.1 0.7 0.1 1.1 -1.8-0.7-4.1-1.1-6.5-1.1 -6.2 0-11.2 2.5-11.2 5.6s5 5.6 11.2 5.6c1.7 0 3.3-0.2 4.8-0.5 -0.8 1-1.9 1.9-3.4 2.6 -2.1 1.1-4.3 1.8-6.4 2.8 -2.1-1-5.1-1.7-8.4-1.7 -6.4 0-11.5 2.4-11.5 5.3 0 2.7 4.6 5 10.4 5.2 -1.3 2.3-2.1 4.7-2.1 7 -1.3-0.2-2.7-0.3-4.2-0.3 -9 0-16.3 3.5-16.3 7.7s7.3 7.7 16.3 7.7c4.5 0 8.6-0.9 11.6-2.3 2.2 0.6 7 3.9 8.9 5.9 2.3 2.2-0.8 5.7-4.6 8.7 -1.4 1.5 0.7 2.5 1.3 2.5 5.8 0 9.2-2.4 9.4-2.5 2.3-1.2 4-3.3 4.3-5.8 0-0.1 0.1-0.3 0.1-0.4 0.8 0.1 1.6 0.2 2.5 0.2 4 0 7.5-1.4 9.4-3.4 0.5 0 1 0 1.5 0 10.5 0 19.1-4.3 19.1-9.6S71.3 42.6 60.8 42.6z"/></svg>