<?xml version="1.0" encoding="utf-8"?>
<!-- Generator: Adobe Illustrator 15.0.0, SVG Export Plug-In . SVG Version: 6.00 Build 0)  -->
<!DOCTYPE svg PUBLIC "-//W3C//DTD SVG 1.1//EN" "http://www.w3.org/Graphics/SVG/1.1/DTD/svg11.dtd">
<svg version="1.1" id="Layer_1" xmlns="http://www.w3.org/2000/svg" xmlns:xlink="http://www.w3.org/1999/xlink" x="0px" y="0px"
	 width="144px" height="144px" viewBox="0 0 144 144" enable-background="new 0 0 144 144" xml:space="preserve">
<path d="M67.97,23.595c-0.11,0.335-0.223,0.669-0.333,1.003c0.712,0.17,1.262,0.574,2.006,0.668
	c-0.089-0.352,0.042-0.333,0.334-0.333c0.473,0,0.381-0.145,0.612-0.506c0.294-0.459,0.481,0.093,0.746,0.172
	c0.624,0.186,0.053-0.334,0.487-0.334c0.497,0,1.534,0.281,1.499-0.335c0.004,0.083-0.811-0.081-0.4-0.231
	c0.225-0.083,0.496-0.099,0.732-0.103c-0.143,0.582,0.418,0.075,0.43,0.62c0.01,0.436-0.896,0.428-0.199,0.913
	c0.467,0.327,1.072,0.403,1.626,0.442c0.802,0.057,0.82-0.08,0.82,0.699c0.54-0.122,0.864-0.417,1.337-0.668
	c-0.053,0.214-0.053,0.334,0.167,0.334c0.284,0,0.167,0.248,0.167,0.501c0,0.787,0.463,0.365,0.83,0.94
	c0.391,0.611,1.508-0.15,1.887,0.312c0.133,0.162,0.445,0.218,0.626,0.253c0.056,0.209,0.081,0.585,0.251,0.75
	c0.172,0.165,0.543,0.191,0.752,0.252c0.086,0.454,0.229,0.891,0.422,1.311c0.293,0.639,0.647,1.235,0.803,1.928
	c0.168,0.742,0.135,0.766-0.555,0.995c-0.74,0.246-0.199-0.146-0.479-0.254c-0.035-0.013-0.506,0.677-0.53,0.293
	c-0.032-0.494-0.327-0.354-0.327,0.073c0,0.25,0.088,0.334-0.168,0.334c-0.435,0,0.047,0.208-0.168,0.334
	c-0.529,0.403-1.074,0.028-1.671,0c0,0.118,0.074,0.595,0,0.669c-0.233,0.235-0.381-0.146-0.335-0.335
	c-0.335,0.112-0.669,0.223-1.003,0.335c0.226,0.697,0.214,0.642,0,1.337c-0.444-0.331-0.548-1.003-1.028-1.003
	c-0.423,0-0.843,0-1.265,0c-0.369,0,0.871-0.901,0.956-1.003c-0.559-0.111-1.115-0.223-1.672-0.334
	c0.041-0.492,0.158-0.881,0.332-1.337c-0.575,0-0.809,0.175-1.336,0.334c0.111-0.334,0.224-0.668,0.334-1.003
	c-0.692,0-0.678,0.082-1.102,0.62c-0.41,0.52-0.533,1.062-0.568,1.72c0.547-0.14,0.414,0.572,0.469,0.938
	c0.044,0.312,0.089,0.625,0.133,0.936c0.096,0.669,0.297,0.514,0.902,0.636c0.277,0.056,0.558,0.111,0.836,0.167
	c0.126-0.251,0.188-0.669,0.501-0.669c0.362,0-0.029,0.464,0.503,0.335c-0.112,0.334-0.225,0.667-0.335,1.002
	c0.223,0,0.444,0,0.668,0c-0.226,0.447-0.229,0.181-0.668,0.334c-0.14,0.553,0.345,0.238,0.668,0.334
	c0.125,0.037-0.157,0.334,0.058,0.334c0.204,0,0.407,0,0.612,0c0.185,0,0.965,0.125,0.668-0.334
	c-0.237-0.062-0.694-0.082-0.817-0.35c-0.353-0.769,0.084-0.649,0.648-1.015c1.029-0.664,1.508-1.486,2.843-1.646
	c0,0.112,0,0.225,0,0.334c0.445-0.111,0.892-0.224,1.339-0.334c-0.06,0.432,0.603,1.159,1.06,1.248
	c0.655,0.129,0.946-0.145,0.946,0.591c0,0.794,0.617,0.656,1.338,0.836c0-0.224,0-0.445,0-0.669c1.332,0.614,2.19,0.924,3.677,0.669
	c0,0.229-0.115,0.816,0,1.003c0.252,0.125,0.67,0.189,0.67,0.501c0,0.368-0.335,0.014-0.335,0.226c0,0.406,0,0.813,0,1.222
	c0,0.534-0.799,0.161-1.003,0.059c0.114,0.457-0.23,0.334-0.563,0.334c-0.425,0-0.226,0.732-0.771,0.669
	c0.082-0.457-0.469-0.559-0.584-1.015c-0.145-0.557-0.598-0.279-1.088-0.238c-0.67,0.056-1.338,0.111-2.008,0.167
	c-0.543,0.046-0.9,0.283-1.17-0.25c-0.101-0.201-0.5-0.656-0.687-0.227c-0.134,0.306-0.563,0.311-0.818,0.561
	c0.271,0.271,0.22,0.28,0.335,0.668c-0.248,0-0.494,0-0.742,0c-0.291,0-0.304-0.332-0.261-0.334
	c-0.253-0.523-0.333,0.503-0.334,0.669c-0.335-0.111-0.67-0.225-1.004-0.334c0.112-0.223,0.224-0.446,0.336-0.668
	c-0.424,0.035-0.653-0.271-1.028-0.447c-0.615-0.29-1.304-0.492-1.979-0.555c-0.043,0.492-0.16,0.881-0.336,1.336
	c-0.556-0.444-1.113-0.892-1.67-1.336c0.122,0.502-0.282,0.179-0.335,0.333c-0.062,0.182,0,0.476,0,0.669
	c-0.225-0.11-0.445-0.224-0.668-0.334c-0.119,0.487,0.716,0.298,0.287,0.931c-0.354,0.523-0.889,0.642-0.623,1.408
	c0.992,0.496,0.387,0.483,0.67,1.339c0.082,0.246,0.334-0.242,0.334,0.334c0,0.292-0.018,0.422,0.335,0.333
	c-0.111,0.335-0.226,0.668-0.335,1.003c0.214-0.052,0.335-0.053,0.335,0.167c0,0.326,0.581,0.362,0.858,0.41
	c0.305,0.053,1.146-0.054,1.146,0.258c0,0.25,0.08,0.167,0.312,0.167c0.518,0,1.03,0,1.545,0c0.191,0,0.221-0.139,0.148-0.333
	c-0.234-0.059-1.338-0.212-1.338-0.44c0-0.826,0.339-0.455,0.9-0.906c0.506-0.412,0.115-1.329,0.771-1.329
	c0.496,0,0.862,1.272,1.297,0.392c0.253-0.514,1.986,0.206,2.382,0.278c0-0.81,0.043-0.669,0.836-0.669
	c0.791,0,0.834-0.141,0.834,0.669c0.504-0.171,0.748-0.524,1.338-0.333c0.422,0.839,0.401,0.594,1.267,0.422
	c0.176-0.036,0.739,0.011,0.739-0.193c0-0.078-0.055-0.508,0-0.563c0.314-0.313,0.67,0.053,0.67,0.334
	c0,0.557,0.563,0.711,1.003,1.003c0.146,0.108-0.188,0.334,0.104,0.334c0.164,0,0.404-0.044,0.563,0
	c0.128,0.036-0.165,0.334,0.071,0.334c0.226,0,0.445,0,0.67,0c0.437,0,0.324,0.432-0.072,0.334c0.584,1.168,0.668,0.546,0.668-0.334
	c0.67,0.112,1.337,0.223,2.006,0.334c0.24-0.208-0.051-0.424,0.334-0.334c0.193,0.047-0.197,0.334,0.336,0.334
	c0.291,0,0.424-0.017,0.333,0.335c0.224-0.112,0.446-0.224,0.669-0.335c-0.122,0.499,0.291,0.188,0.334,0.335
	c0.145,0.381,0.006,0.613-0.307,0.825c-0.314,0.215-0.479,0.449-0.361,0.846c0.223,0.147,0.445,0.296,0.668,0.444
	c0.502,0.335,0.238,0.418,0,0.891c0.07,0.222,0.646,0.195,0.717,0.519c0.071,0.322-0.593,0.065-0.717,0.151
	c-0.287,0.858-0.42,0.938,0.334,1.504c0.635,0.478,0.756,0.765,1.004,1.505c-0.295-0.071-0.404,0.039-0.334,0.333
	c-0.668-0.111-1.338-0.224-2.007-0.333c-0.104-0.295,0.062-0.4,0.335-0.335c-0.586-1.167-0.668-0.544-0.668,0.335
	c-0.873-0.153-1.576-0.59-2.342-1.003c0,0.558,0,1.113,0,1.671c-0.297-0.073-0.596-0.147-0.893-0.223
	c-0.146-0.037-0.297-0.074-0.443-0.111c0-0.11,0-0.224,0-0.333c-0.484,0-0.335,0.218-0.335,0.668
	c-0.669-0.111-1.337-0.223-2.007-0.334c-0.105-0.15,0-0.735,0-0.928c0-0.149-0.4-0.331-0.512-0.494
	c-0.303-0.458-1.312-0.019-1.83,0.086c0-0.767-0.039-0.678-0.834-0.837c-0.129-0.025-0.787-0.223-0.869-0.12
	c-0.148,0.191-0.4,0.274-0.637,0.287c0.053-0.213,0.055-0.334-0.166-0.334c-0.244,0-0.141,0.312-0.42,0.485
	c-0.59,0.368-1.045,0.463-1.754,0.519c0.111-0.669,0.223-1.339,0.334-2.007c-0.473,0-0.945,0-1.418,0
	c-0.83,0-0.865,0.114-1.256-0.669c0.764,0,0.227-0.464-0.334-0.333c-0.171,0.121-0.105,0.394-0.381,0.394
	c-0.686,0.001-0.1-0.49,0.093-0.646c0.202-0.163,0.228-0.526,0.288-0.751c-0.223-0.074-0.445-0.147-0.669-0.223
	c-0.573-0.193-0.112-0.348-0.335-0.445c-1.328-0.591-1.201,1.196-1.337,2.004c0.138,0,0.94-0.089,1.004,0
	c0.208,0.309-0.468,0.47-0.671,0.669c0.578,0.077,1.273,0.013,1.152,0.708c-0.199,1.159,1.188,1.114,1.188,2.056
	c0,0.232-0.095,0.699,0,0.913c0.101,0.23,0.265-0.259,0.461,0.347c0.062,0.188,0.099,0.365,0.047,0.56
	c-0.188,0.701-0.129,0.69-0.84,0.856c-0.862,0.202-0.58,0.52-0.336,1.247c-0.265-0.063-0.713,0.247-1.003,0.334
	c0.107-0.445,0.222-0.892,0.333-1.336c-0.335,0-0.668,0-1.005,0c0.111-0.224,0.224-0.446,0.337-0.669
	c-0.486-0.119-0.882,0.785-1.546,0.82c-0.346,0.019-0.299,0.519-0.565,0.519c-0.332,0-0.679-0.124-0.562,0.333
	c-0.225-0.111-0.446-0.223-0.67-0.333c0.084,0.344-0.198,0.421-0.258,0.712c-0.099,0.485-0.646,0.289-1.08,0.289
	c0.111-0.334,0.223-0.667,0.334-1.001c-0.344,0-0.793,0.152-0.669-0.336c-0.418,0.084-0.835,0.167-1.253,0.251
	c-0.651,0.13-0.567-0.369-0.753-0.92c-0.742,0.237-1.246,0.067-2.005,0c-0.089,0.352,0.042,0.335,0.335,0.335
	c0.346,0,0.52,0.333,0.167,0.333c-0.379,0,0.005,0.336-0.242,0.336c-0.31,0-0.618,0-0.927,0c0.111-0.335,0.223-0.669,0.333-1.004
	c-0.794-0.168-1.099,1.645-1.672,2.005c-0.417,0.084-0.835,0.168-1.254,0.251c-0.787,0.157-0.049,0.345-0.835,0.5
	c-0.305,0.062-1.252,0.084-1.252,0.418c0,0.313-0.481,0.583-0.731,0.758c-0.286,0.199-0.608,0.323-0.94,0.413
	c-0.08,0.335-0.202,0.625-0.368,0.923c-0.186,0.333-0.252,0.708-0.302,1.081c-0.14,0.11-0.513-0.093-0.666,0
	c-0.888,1.962-1.789,3.843-2.008,6.018c0.489,0.124,0.334-0.325,0.334-0.669c1.454,0.155,2.833,0.816,4.276,1.061
	c0.672,0.114,1.422,0.188,2.075-0.056c0.285-0.131-0.275-0.335,0.334-0.335c0.478,0,0.458-0.245,0.669-0.669
	c1.062,0.533,2.194-0.125,3.344-0.333c-0.005,0.116-0.701,0.455-0.399,0.566c0.211,0.079,0.455,0.087,0.679,0.101
	c0.302,0.017,0.129,0.3,0.198,0.338c0.113,0.065,0.3-0.371,0.524-0.446c0.712-0.238,0.666-0.226,1.003,0.444
	c0.663,0.39,0.668-0.271,0.668-0.669c0.228,0.057,0.812,0.139,0.774,0.493c-0.03,0.284,0.153,0.653,0.475,0.447
	c0.323-0.208,0.692-0.511,1.091-0.271c0.177,0.301-0.506,0.747-0.667,1.003c0.333-0.11,0.667-0.224,1.003-0.334
	c-0.137,0.524,0.529,0.468,0.892,0.559c0.688,0.173,0.446,0.663,1.017,0.919c0.31,0.14,0.844,0.599,1.103,0.529
	c-0.113,0.223-0.226,0.445-0.336,0.669c0.116,0,0.598-0.074,0.671,0c0.232,0.233-0.146,0.38-0.335,0.333
	c0.11,0.335,0.224,0.669,0.335,1.003c-0.93,0-1.005-0.178-1.005,0.755c0,0.917,0.286,1.25-0.668,1.25
	c-1.13,0-0.334,0.168-0.334,0.837c0,1.264,1.625,1.021,2.675,1.171c-0.087-0.512,0.354-0.336,0.743-0.336
	c0.528,0,0.065-0.669,0.334-0.669c0.211,0,1.239,0.171,0.93-0.334c-0.79-0.264-1.004-0.177-1.004-1.002
	c0.224,0.109,0.444,0.223,0.668,0.333c0.154-0.313,0.14-0.494,0.14-0.812c-0.004-0.396,0.664-0.354,0.529-0.857
	c0.444,0.111,0.893,0.225,1.337,0.335c0.372-0.446,0.744-0.894,1.115-1.337c0.31-0.371,0.405-0.668,0.892-0.668
	c0.293,0,0.424,0.017,0.336-0.335c0.332,0.111,0.666,0.224,1.002,0.335c0-0.808,0.279-0.683,0.668-1.337
	c-0.32-0.198-0.467-0.353-0.668-0.668c0.375,0,0.752,0,1.129,0c0.322,0,0.572,0.473,0.877,0.668
	c-0.029-0.678-0.42-1.365,0.465-1.349c0.291,0.005,0.582,0.014,0.873,0.011c0.023,0.294,0.053,0.595,0.15,0.875
	c0.207,0.587,0.623,0.64,1.028,0.199c0.396-0.43,0.49-0.342,0.49-0.97c0,0.064,0.655-0.547,0.807-0.614
	c0.754-0.339,0.576,0.246,0.972,0.711c0.15,0.18,0.36,0.287,0.578,0.366c0.533,0.196,0.51-0.468,0.652-0.901
	c0.396,0.292,0.529,0.54,0.669,1.003c0.328,0.2,1.435-0.277,1.672,0c0.111,0.128-0.104,0.532,0,0.668
	c0.632,0.014,1.224,0.167,1.812,0.386c1.318,0.495,2.828,0.086,4.207-0.053c-0.143,0.562,0.353,0.225,0.67,0.334
	c0.117,0.041-0.146,0.334,0.039,0.334c0.158,0,0.32,0,0.479,0c0.446,0,0.893,0,1.338,0c0.344,0-0.046,0.464,0.483,0.335
	c-0.112-0.335-0.226-0.669-0.334-1.004c0.237,0,0.799-0.114,1.002,0c0.159,0.262,0.407,0.811,0.793,0.789
	c0.489-0.028,0.819,0.097,1.045,0.548c0.206,0.412,0.836,0.229,0.836,0.502c0,0.452,0.67-0.121,0.67,0.334
	c0,0.323,0.649,0.167,0.929,0.167c0.237,0-0.056,0.298,0.072,0.334c0.161,0.044,0.401,0,0.564,0c0.3,0-0.053,0.248,0.104,0.335
	c0.334,0.11,0.671,0.223,1.005,0.334c0-0.334,0-0.668,0-1.003c0.704,0.14,1.532,0.249,1.78,1.003
	c0.324,0.969,0.274,0.308,0.894,0.669c0.438,0.878,0.356,0.35,1.004,0.668c0.224,0.335,0.444,0.669,0.668,1.003
	c0.445,0.112,0.894,0.224,1.338,0.334c-0.495,0.992-0.049,0.481,0.334,1.002c-0.229,0-1.19-0.146-1.338,0
	c-0.28,0.283,0.205,0.335,0.334,0.335c0.547,0,0.513,0.528,0.67,1.003c-0.223,0-0.444,0-0.668,0c0.601,1.2-0.094,0.322-0.336,1.005
	c0.508-0.132,0.772,0.654,1.004,1.002c-0.285,0-1.004-0.16-1.004,0.168c0,0.453,0.67-0.123,0.67,0.342c0,0.481,0,0.967,0,1.449
	c0,0.34-0.516-0.248-0.5-0.224c-0.215-0.329-0.485-0.56-0.838-0.731c0.135,0.511-0.701,0.56-1.058,0.776
	c-0.312,0.193-0.614,0.4-0.948,0.56c0.11,0.447,0.223,0.894,0.334,1.338c-0.416,0.115-0.677-0.457-1.002-0.668
	c0.127,0.524-0.336,0.125-0.336,0.595c0,0.224,0,0.446,0,0.669c0,0.141-0.334,0.154-0.334-0.093c0-0.257-0.111-0.177-0.334-0.169
	c0.069-0.002-0.052,0.369-0.375,0.404c-0.783,0.086-1.572-0.136-2.3-0.404c0.267,0.731,0.254,0.938,0,1.673
	c-0.29-0.216-0.646-0.997-0.844-1.037c-0.44-0.088-0.882-0.179-1.323-0.265c-0.329-0.066-0.461,0.322-0.838,0.351
	c-0.473,0.033-0.501-0.377-0.673-0.722c-0.104-0.061-0.446,0-0.563,0c-0.308,0,0.077,0.671-0.18,0.671
	c-0.277,0-0.93,0.155-0.93-0.168c0-0.157-0.271-0.628-0.334-0.837c0.224,0,0.445,0,0.668,0c-0.258-0.361-0.719-0.012-0.668-0.668
	c-0.008,0.101,0.761-0.098,0.357-0.315c-0.217-0.116-0.474,0.045-0.691-0.021c-0.188,0.049,0.203,0.336-0.26,0.336
	c-0.104,0-0.677-0.073-0.744,0c-0.147,0.158,0,1.098,0,1.338c-0.856-0.286-1.002-0.194-1.002-1.077c0-0.748-1.551-0.114-1.338-0.931
	c-0.334,0.113-0.668,0.226-1.002,0.334c0-0.224,0-0.444,0-0.668c-0.447,0.334-0.894,0.668-1.339,1.004
	c0.14-0.563-0.383-0.096-0.422-0.601c-0.015-0.166,0.741-0.737,0.317-0.737c-0.153,0-0.309,0-0.461,0
	c-0.295,0,0.045,0.285-0.104,0.334c-0.593,0.328-0.825-0.258-1.337-0.334c0.189,0.681-1.232,0.951-1.672,1.002
	c0-0.224,0-0.444,0-0.668c-0.225,0.11-0.447,0.225-0.67,0.334c0.104-0.42-0.253-0.438-0.432-0.155
	c-0.133,0.205-0.35,0.235-0.571,0.155c-0.351-0.698-0.302-0.683-1.002-0.334c0.137-0.551-0.957-1.051-1.339-1.336
	c0,0.258-0.137,0.666,0.168,0.666c0.324,0,0.217,0.431-0.168,0.336c0.029,0.369,0.139,0.043,0.334,0.334
	c-0.157,0.316-0.221,0.791-0.668,0.668c0.225,0.67,0.445,1.34,0.668,2.009c0.337-0.111,0.671-0.226,1.005-0.335
	c-0.07,0.296,0.038,0.406,0.334,0.335c-0.068,0.342-0.161,1.671-0.502,1.671c-0.226,0-0.589-0.512-0.837-0.669
	c0.33,0.853,0.341,2.312-0.334,3.01c0.123-0.503-0.28-0.179-0.334-0.336c-0.064-0.196,0-0.535,0-0.742
	c0-0.604-0.842,0.095-0.668-0.594c-0.223,0.11-0.443,0.224-0.668,0.334c0.115-0.472-0.334-0.438-0.334,0.167
	c0,0.027,0.035,0.47,0,0.501c-0.346,0.299-0.291-0.271-0.336-0.333c-0.449-0.452-0.192-0.689-0.996-0.561
	c-0.236,0.039-0.443,0.039-0.683,0c-0.7-0.114-0.659-0.11-0.884,0.56c-0.225,0.665-2.096,0.582-2.787,0.668
	c-0.061,0.084,0,0.465,0,0.563c0,0.188-0.334,0.185-0.334-0.062c0-0.463-0.459,0.324-0.807,0.09
	c-0.148-0.099-0.125-0.283-0.299-0.228c-0.398,0.13-0.812,0.272-1.234,0.305c0.111-0.224,0.223-0.444,0.334-0.67
	c-0.295-0.069-0.406,0.039-0.334,0.336c-0.445-0.112-0.895-0.224-1.338-0.336c0.102,0.39-0.075,0.354-0.445,0.446
	c-0.749,0.187-0.884,0.205-1.227,0.892c-0.164,0.099-0.502-0.099-0.668,0c-0.178,0.354-0.182,0.668-0.596,0.668
	c-0.926,0-0.632,0.263-1.412,0.781c-0.424,0.282-0.333,0.312-0.333,0.787c0,0.295-0.334-0.085-0.334,0.209
	c0,0.131,0.059,0.444,0,0.562c-0.218,0.146-1.003,0.516-1.003,0.772c0,1.028-1.073,1.041-1.504,1.901
	c-0.221,0.44-0.269,0.334-0.731,0.334c-0.26,0-0.629,0.785-0.773,1.002c-1.227,0.447-2.452,0.894-3.679,1.338
	c1.812,0,3.609,0.386,5.341,0.896c0.961,0.284,1.908,0.802,2.918,0.808c1.852,0.015,3.699-0.072,5.549-0.062
	c0.299,0.002,1.571,0.026,1.571,0.365c1.024,0,1.854,0.67,2.765,0.67c0.909,0,1.562,0.243,2.405,0.383
	c0.749,0.121,2.466,0.504,2.854,1.288c0.216-0.107,1.336-0.051,1.336,0.334c0.503,0,1.147,0.062,1.606,0.279
	c0.957,0.457,2.415,0.345,3.478,0.621c0.246,0.063,2.271-0.037,2.271,0.437c0.551,0,1.416,0.584,1.959,0.765
	c0.43,0.146,0.858,0.287,1.289,0.432c0.562,0.188,0.477,0.347,0.533,0.898c0.134,1.278,0.018,2.209-1.309,2.537
	c-1.067,0.266-0.803,0.852-0.803,1.805c0,0.332,0.184,1.924-0.168,1.924c-0.383,0-0.342,1.223-0.753,1.48
	c-0.36,0.229-1.085,0.395-1.085,0.784c0,0.84-0.16,0.704-0.829,1.179c-0.675,0.479-1.487,0.762-2.276,0.991
	c-1.938,0.568-3.947,0.82-5.926,1.202c-1.354,0.262-2.449,0.38-3.834,0.38c-0.283,0-1.176-0.17-1.176,0.167
	c0,0.497-1.779-0.093-1.672-0.837c-3.998,0.125-8.036,0.101-11.996,0.579c-2.633,0.318-5.331,0.091-7.981,0.091
	c-0.457,0-0.915,0-1.374,0c-0.52,0-0.515,0.203-0.826,0.668c-0.398,0.599-1.383,0.334-2.063,0.334c-2.312,0-4.633,0.06-6.938-0.103
	c-1.279-0.088-2.608-0.565-3.866-0.565c-0.947,0-1.831,0.075-2.736-0.209c-0.556-0.174-1.818-0.229-2.144-0.657
	c-0.379-0.494-0.817-0.953-1.274-1.375c-0.277-0.255-0.532-0.426-0.775-0.693c-0.192-0.215-0.402-0.416-0.626-0.6
	c-0.395-0.322-0.358-1.15-0.44-1.646c-0.122-0.731-0.08-2.34-0.752-2.676c-0.423-0.211-1.029-0.438-1.265-0.853
	c-0.309-0.542-0.52-1.157-0.684-1.758c-0.104-0.381,0.468-0.57,0.771-0.791c0.927-0.674,1.541-1.058,2.622-1.401
	c0.401-0.128,0.785-0.3,1.167-0.441c0.609-0.229,1.195-0.416,1.859-0.604c1.511-0.432,2.832-1.312,4.381-1.725
	c1.184-0.315,2.377-0.589,3.571-0.858c0.481-0.107,0.965-0.216,1.45-0.318c0.675-0.146,0.604-0.556,1.066-1.037
	c2.023-2.107,1.999-4.993,2.331-7.817c0.047-0.397-0.057-0.853,0.326-1.026c0.263-0.119,0.512-0.287,0.737-0.47
	c0.103-0.084,0.387-0.286,0.387-0.454c0.562-0.023,1.125-0.07,1.688-0.119c2.176-0.187,4.188-0.31,6.336,0.119
	c-0.14-0.568,0.707-0.333,1.082-0.333c0.059,0,0.543,0.054,0.588,0c0.125-0.145,0.019-0.655-0.131-0.739
	c-0.494-0.28-3.148-1.838-2.209-2.604c-0.539,0-0.617-0.044-1.004-0.335c0,0.155,0.066,1.002-0.058,1.002
	c-0.575,0-1.175,0.21-1.447-0.333c-0.196-0.396,0.381-1.07,0.897-1.212c0.495-0.136,0.438-0.183,0.606-0.793
	c-0.263-0.062-0.713,0.246-1.003,0.333c0-0.741-0.221-1.003,0.565-1.003c0.013,0,1.303-1.771,1.44-2.007
	c-0.213-0.053-0.334-0.055-0.334,0.168c0,0.283-0.246,0.166-0.501,0.166c-0.342,0-0.879-0.137-0.501-0.668
	c0.357-0.094,0.77-0.073,0.784-0.477c0.011-0.252,0.121-0.527,0.386-0.527c0.325,0,0.406-0.717,0.502-1.002
	c-0.339,0.093-1.111-1.424-1.613-1.728c-0.354-0.213-0.736-0.371-1.116-0.528c-0.208-0.086-0.417-0.177-0.624-0.269
	c-0.419-0.188-0.175-0.414-0.324-0.486c-0.161-0.077-0.565,0-0.743,0c-0.477,0-0.062-0.282-0.706-0.444
	c-0.296-0.073-0.595-0.147-0.892-0.224c-0.134-0.054,0.17-0.335-0.074-0.335c-0.28,0-0.657,0.071-0.929,0
	c-0.192-0.05,0.207-0.335-0.259-0.335c-0.265,0-0.743,0.146-0.743-0.166c0-0.614-0.512,0.166-0.335,0.166
	c-0.343,0-0.351-0.332-0.364-0.332c-1.367,0-2.537,0.007-3.855-0.319c-0.28-0.067-1.129-0.248-1.129,0.151
	c0,0.341-0.375,0.177-0.475-0.047c-0.206-0.459-2.355,0.453-2.778,0.508c-0.649,0.087-0.579-0.424-0.76-0.963
	c-0.392-0.11-0.396-0.065-0.668-0.334c-0.223,0.074-0.446,0.147-0.669,0.224c-0.576,0.19-0.107,0.347-0.333,0.446
	c-0.218,0.097-0.688,0-0.929,0c-0.248,0,0.137,0.334-0.242,0.334c-0.311,0-0.167,0.479-0.167,0.742c0,0.478-0.333,0.043-0.333,0.427
	c0.054,0.167,0,0.225-0.167,0.167c-0.379,0-0.021-0.136-0.167-0.334c-0.294-0.296-0.391-1.026-1.004-0.67
	c-0.11,0.226-0.223,0.445-0.333,0.67c-0.418-0.084-0.837-0.167-1.254-0.251c-0.576-0.115-0.419-0.222-0.419-0.751
	c-0.364,0.243-1.082,0.468-0.899,0.929c0.138,0.353,0.194,0.701,0.231,1.076c-0.365-0.095-0.841-0.185-0.943-0.609
	c-0.055-0.229-0.047-0.479-0.051-0.713c-0.012-0.565-0.306-0.356-0.779-0.465c-0.646-0.144-1.254-0.418-1.903-0.552
	c-0.307-0.928-0.415-1.028-1.338-1.339c0,0.333,0,0.669,0,1.003c-0.288-0.065-0.885-0.157-1.046-0.471
	c-0.021-0.046-0.916,0.45-0.959,0.471c0-1.067,0.066-1.003-1.002-1.003c0.041-0.492,0.159-0.882,0.335-1.337
	c-0.286,0-1.117-0.154-1.338,0c-0.097,0.287-0.177,1.003-0.501,1.003c-0.409,0,0.075-0.335-0.335-0.335
	c-0.339,0-0.167-1.013-0.167-1.31c0-0.584-0.812-0.494-1.336-0.695c0.111-0.223,0.223-0.445,0.334-0.668
	c-0.46-0.112-0.594,1.082-0.666-0.28c-0.001-0.021,1.135-0.715,0.512-0.838c-0.455-0.089,0.18-0.251,0.274-0.625
	c0.143-0.571-0.036-1.039-0.12-1.602c0.375-0.087,1.336-0.365,1.336-0.837c0-0.591,2.007-0.076,2.007-0.668
	c0-0.155-0.272-0.627-0.335-0.835c0.786,0.111,1.578,0.085,2.339,0.334c0-0.866,0.17-0.669,1.004-0.669
	c-0.112,0.335-0.223,0.669-0.335,1.003c0.197,0,0.482,0.059,0.669,0c0-0.11,0-0.223,0-0.334c0.334-0.056,0.669-0.11,1.003-0.167
	c0.358-0.06,0.988-0.391,1.16,0.063c0.088,0.237,0.196,0.516,0.512,0.438c-0.114-0.457,0.231-0.334,0.565-0.334
	c0.298,0-0.051-0.249,0.104-0.334c0.334-0.111,0.666-0.223,1.002-0.335c0.092,0.356,0.095,0.754,0.496,0.87
	c0.179,0.05,0.508,0.017,0.508,0.238c0,0.129-0.083,0.563,0.073,0.563c0.488,0,0.93,0.214,0.93-0.334
	c0-0.655,1.739-0.584,2.34-0.669c-0.066,0.274,0.04,0.438,0.334,0.334c0.171-0.342,0.312-0.949,0.75-0.526
	c0.678,0.656,1.104,0.826,1.589-0.143c0.548-0.135,0.374,0.715,1.001,0.619c0.771-0.119,1.562-0.274,2.342-0.285
	c0,0.286-0.159,1.003,0.167,1.003c0.31,0,0.366-0.396,0.58-0.603c0.245-0.236,0.606-0.32,0.925-0.401
	c0.108,0.387-0.463,0.681-0.669,1.003c0.334,0,0.669,0,1.002,0c-0.11,0.225-0.222,0.446-0.333,0.669c0.224,0,0.445,0,0.668,0
	c0.044,0.257-0.202,0.48-0.213,0.739c-0.017,0.423,0.353,0.876,0.716,1.06c0.812,0.404,1.062,0.495,1.17,1.545
	c-0.841,0-0.67,0.111-0.67,0.929c0,0.558,1.691,0.726,2.006,0.743c0.091-0.369-0.538-0.451-0.496-0.508
	c0.131-0.18,0.633-0.158,0.83-0.161c-0.127-0.638-0.254-1.273-0.381-1.91c-0.064-0.318-0.129-0.637-0.191-0.955
	c-0.206-1.029-0.317-0.135-0.43-0.479c-0.064-0.199,0-0.534,0-0.742c0-0.51-0.439,0.003-0.344-0.542
	c0.041-0.229,0.301-0.225,0.344-0.388c0.062-0.273,0-0.634,0-0.914c0-0.25-0.104-0.423,0.166-0.423c0.354,0,0.589-1.263,0.703-1.604
	c0.062-0.193,0.469-0.508,0.469-0.476c0-0.227-0.104-0.73,0-0.93c0.443-0.295,0.939-0.484,1.113-1.002
	c0.073-0.224,0.147-0.446,0.224-0.669c0.211-0.279,0.209,0.291,0.515-0.314c0.147-0.292,0.209-0.611,0.342-0.907
	c0.167-0.372,0.814-0.613,0.814-0.951c0-0.293-0.311-0.167-0.564-0.167c-0.211,0-0.104,0.485-0.104,0.669
	c-0.223-0.074-0.446-0.149-0.669-0.225c-0.056-0.018-0.511-0.47-0.333-0.444c-0.458-0.065-0.334,0.185-0.334,0.563
	c0,0.215-0.563,0.104-0.744,0.104c-0.501,0-0.426-0.831-0.51-1.254c-0.213-1.064-0.619,0.143-0.752,0.585
	c-1.023-0.014-1.785,0.197-2.676,0.669c-0.196-0.847-0.498-1.128-1.337-1.338c0,0.36,0,0.722,0,1.084c0,0.18,0,0.36,0,0.542
	c0,0.164-0.255-0.034-0.334,0.046c-0.127,0.128,0.175,0.335-0.104,0.335c-0.061,0-0.529,0.046-0.564,0
	c-0.093-0.128,0.277-0.815,0.335-1.003c-0.713,0-0.669-0.044-0.669,0.668c-0.223-0.074-0.445-0.149-0.668-0.222
	c-0.233-0.196-0.394-0.166-0.477,0.092c-0.104-0.163-0.167-0.343-0.191-0.539c-0.154-0.046-0.404,0-0.564,0
	c-0.224,0-0.351,0.491-0.439,0.668c-0.335-0.111-0.669-0.221-1.002-0.333c0.089,0.351-0.043,0.333-0.334,0.333
	c-0.568,0-0.097,0.259-0.335,0.335c-0.312,0.106-0.658-0.041-0.974-0.041c-0.424,0-0.2,0.376-0.53,0.376
	c-0.44,0,0.16-0.67-0.589-0.67c-0.819,0-0.915,0.169-0.915-0.668c-0.593,0.312-0.978,0.585-1.672,0.668
	c-0.024-0.447-0.351-0.911-0.333-1.337c0.381,0.093,0.492-0.335,0.167-0.335c-0.261,0-0.849,0.812-1.17,1.003
	c0-0.311,0-0.619,0-0.929c0-0.106,0.874-0.858,1.004-1.077c-0.515-0.045-0.812,0.642-1.19,0.967
	c-0.521,0.447-1.145,0.869-1.818,1.039c0.216-0.861,0.908-1.281,1.337-2.006c-0.344,0-0.794,0.153-0.669-0.334
	c-0.334,0.111-0.668,0.223-1.002,0.334c0-0.655-0.345-1.67,0.424-1.67c0.935,0,0.892,0.087,1.136-0.894
	c0.154-0.617,0.763-0.534,1.115-1.114c-0.159,0.016-0.725-0.171-0.354-0.299c0.221-0.077,0.483,0.033,0.688-0.036
	c-0.139-1.236,0.514,0.334,0.409,0.334c0.276,0,0.929,0.157,0.929-0.167c0-0.157-0.271-0.626-0.335-0.836
	c0.979,0,2.675,0.464,2.675-0.835c0-1.016,1.039-0.225,1.583-0.916c0.161-0.204,1.328-1.56,1.091-0.59
	c0.797-0.079,1.592-0.158,2.39-0.238c0.929-0.094,0.954,0.033,0.954-0.838c0-0.255-0.521-0.403-0.493-0.44
	c0.131-0.179,0.632-0.153,0.828-0.154c0,0.127-0.067,0.667,0.059,0.667c0.408,0,0.813,0,1.222,0c0.062,0,0.049-0.308,0.392-0.333
	c0,0.055,0,0.11,0,0.167c-0.055,0.271,0.112,0.354,0.502,0.25c0.502,0.083,1.003,0.167,1.505,0.25c0-0.375,0-0.752,0-1.127
	c0-0.418,0.464-0.012,0.334-0.543c0.445,0.111,0.892,0.222,1.337,0.333c0.095-0.387-0.856-0.489-0.236-0.61
	c0.477-0.092,0.543-0.119,0.905-0.392c-0.273,0.813-0.479,0.93,0.335,1.336c-0.112,0.223-0.225,0.445-0.335,0.667
	c0.31,0,0.619,0,0.928,0c0.183,0,0.425-0.572,0.628-0.702c0.249-0.16,0.571-0.096,0.843-0.06c0.314,0.04,0.628,0.076,0.944,0.094
	c0.111-0.334,0.223-0.669,0.334-1.004c0.343,0.182,0.627,0.443,0.998,0.571c0.477,0.163,0.339,0.281,0.339,0.768
	c0.176-0.059,0.937-0.41,1.047-0.278c0.369,0.436,0.872,0.452,1.126-0.057c0.297-0.595,0.21-0.283,0.318-0.075
	c0.08,0.156,0.663,0.075,0.771,0.075c0.71,0,1.083,0.253,1.083-0.501c0-0.641,0.403-0.655,1.003-0.835
	c-0.111,0.334-0.222,0.668-0.334,1.001c0.387,0.108,0.681-0.464,1.003-0.669c0.104-0.448-0.996-0.606-1.338-1.002
	c0.251,0,1.164,0.151,1.338,0c0.031-0.38,0.086-0.727,0.231-1.078c0.285-0.698,0.882,0.521,1.272-0.259
	c0.287-0.572,1.062-0.334,1.666-0.334c0.252,0,0.174-0.068,0.174-0.334c0-0.605,0.82-0.539,1.337-0.667
	c0.028,0.278,0.001,0.7,0.175,0.946c0.217,0.31,0.566,0.274,0.494,0.725c0.334-0.112,0.669-0.225,1.003-0.334
	c0.216,0.059,0.43,0.548,0.668,0.668c0-0.688,0-1.376,0-2.063c0-0.373-0.193-0.384-0.386-0.707
	c-0.162-0.271-0.217-0.604-0.282-0.908c-0.334-0.11-0.668-0.223-1.003-0.332c0,0.222,0,0.444,0,0.666
	c-0.257-0.193-0.412-0.473-0.668-0.666c0,0.575,0.174,0.808,0.334,1.337c-0.646-0.059-1.264-0.125-1.516-0.801
	c-0.255-0.689-0.315-0.498-1.048-0.313c-0.6,0.149-0.444,0.224-0.444,0.781c-0.912-0.169-1.748-0.57-2.677-0.669
	c0,0.223,0,0.445,0,0.669c-0.493-0.143-0.706-0.335-1.231-0.335c-0.493,0-0.475,1.06-1.107,1.003c0.135-0.627-0.338-0.33,0-1.003
	c-0.222,0-0.445,0-0.667,0c0.111-0.224,0.222-0.446,0.333-0.667c-0.834,0-1.002,0.196-1.002-0.669
	c-0.624,0.089-1.249,0.178-1.872,0.267c-0.792,0.114-0.206,0.192-0.698,0.576c-0.682,0.529-1.232,0.758-2.11,0.83
	c0-0.428,0-0.854,0-1.28c0-0.124,0.846-0.058,1.003-0.058c-0.029-0.782-0.481-0.691,0.334-1.004
	c0.131-0.614,1.316-1.403,0.668-2.006c0.289,0,0.732-0.09,1.002,0c0.201,0.067-0.255,0.334,0.167,0.334
	c0.22,0,0.22-0.122,0.167-0.334c0.225,0.111,0.447,0.224,0.669,0.334c0.131-0.529-0.334-0.139-0.334-0.502
	c0,0.004,0.48-0.501,0.409-0.501c0.207,0,0.757,0.106,0.928,0c0.239-0.478,0.2-0.642,0.752-0.752
	c0.418-0.084,0.835-0.167,1.253-0.25c-0.11,0.334-0.222,0.669-0.333,1.003c0.488-0.119,0.209,0.334,0.408,0.334
	c0.311,0,0.619,0,0.93,0c-0.112,0.334-0.224,0.668-0.336,1.002c0.265,0.063,0.713-0.247,1.004-0.333
	c0.387-0.665-0.269-0.669-0.669-0.669c0.112-0.334,0.223-0.668,0.334-1.003c0.334,0.111,0.669,0.224,1.005,0.334
	c0.07-0.295-0.041-0.407-0.336-0.334c0.252-0.755,0.391-0.931,0.969-1.446c0.285-0.255,0.515-0.562,0.705-0.894
	c0.335,0.11,0.669,0.223,1.002,0.334c-0.217-0.891,0.748,0.335,0.93,0.335c0.208,0,0.544-0.065,0.743,0
	c0.073,0.023-0.045,0.43,0.172,0.428c0.274-0.001,0.162-0.507,0.162-0.658c0-0.206-0.395-0.104-0.564-0.104
	c-0.649,0,0.479-1.35,0.23-0.334c0.414-0.206,0.629-0.217,0.78-0.669c0.147-0.444,0.078-0.668,0.557-0.668
	c0.686,0,0,0.838,0.669,0.668c-0.162-0.659-0.668-1.671-1.396-1.671c-0.896,0-1.793,0-2.688,0c-0.58,0-1.511-0.267-1.711,0.333
	c-0.234,0.707-0.19,0.669-0.892,0.669c-0.364,0-0.772-0.158-0.669,0.334c-0.444-0.111-0.891-0.223-1.336-0.334
	c-0.111,0.334-0.224,0.668-0.335,1.003c-0.334-0.112-0.668-0.223-1.002-0.335c0.096,0.843-0.311,0.26-0.333-0.279
	c-0.006-0.122-0.629-0.055-0.746-0.055c-0.466,0-0.461-0.605-0.594-1.003c0.994,0,0.885-0.436,1.003-1.337
	c-0.174-0.007-0.55,0.711-0.667,0.233c-0.048-0.197-0.028-0.414-0.014-0.615c0.03-0.463,0.269-0.087,0.347-0.286
	c0.059-0.151,0.046-1.003-0.075-1.003c-1.003,0-1.014-0.128-1.597-1.002c0.554-0.248,1.035-0.553,1.36-1.079
	c0.191-0.312,0.646-1.04,0.646-0.259c0,0.604,0.37,0.276,0.516-0.104c0.289-0.748,0.57,0.32,0.821,0.438
	c-0.071-0.295,0.04-0.408,0.334-0.336c-0.112-0.335-0.223-0.668-0.334-1.003c0.489,0.124,0.334-0.325,0.334-0.669
	c0.293,0.069,0.181,0.334,0.502,0.334c0.384,0-0.052-0.334,0.427-0.334c0.655,0,0.868-0.05,1.002-0.713
	c0.101-0.502,0.798-0.433,1.187-0.746c0.37-0.3-0.001-0.643,0.226-0.881c0.297-0.271,0.594,0.751,0.67,1.003
	C67.174,24.163,67.234,23.802,67.97,23.595"/>
</svg>
